<svg xmlns="http://www.w3.org/2000/svg" xmlns:xlink="http://www.w3.org/1999/xlink" width="500" zoomAndPan="magnify" viewBox="0 0 375 374.999991" height="500" preserveAspectRatio="xMidYMid meet" version="1.0"><defs><clipPath id="00009063ab"><path d="M 0 43 L 375 43 L 375 363.75 L 0 363.75 Z M 0 43 " clip-rule="nonzero"/></clipPath></defs><rect x="-37.5" width="450" fill="#ffffff" y="-37.499999" height="449.999989" fill-opacity="1"/><rect x="-37.5" width="450" fill="#ffffff" y="-37.499999" height="449.999989" fill-opacity="1"/><rect x="-37.5" width="450" fill="#ffffff" y="-37.499999" height="449.999989" fill-opacity="1"/><g clip-path="url(#00009063ab)"><path fill="#16a085" d="M 357.007812 83.914062 C 329.898438 41.160156 273.359375 37.722656 238.035156 49.832031 C 210.625 59.25 190.90625 85.410156 187.472656 89.894531 C 184.035156 85.410156 165.066406 59.773438 137.65625 50.429688 C 102.328125 38.320312 45.046875 41.160156 17.933594 83.914062 C 7.179688 100.882812 -26.652344 155.742188 46.6875 240.5 C 46.6875 240.5 116.070312 320.699219 180.152344 359.492188 C 183.066406 361.210938 186.800781 363.527344 187.097656 363.378906 C 187.398438 363.527344 191.503906 361.285156 194.417969 359.492188 C 258.5 320.699219 328.253906 240.5 328.253906 240.5 C 401.597656 155.742188 367.765625 100.882812 357.007812 83.914062 Z M 357.007812 83.914062 " fill-opacity="1" fill-rule="nonzero"/></g><path fill="#ffffff" d="M 175.746094 283.550781 C 173.207031 283.550781 170.890625 281.980469 169.996094 279.515625 L 126.15625 162.394531 L 109.574219 215.6875 C 108.753906 218.226562 106.363281 220.171875 103.675781 220.171875 L 56.621094 220.171875 C 53.1875 220.171875 50.421875 217.253906 50.421875 213.816406 C 50.421875 210.378906 53.1875 207.464844 56.621094 207.464844 L 99.117188 207.464844 L 119.730469 141.464844 C 120.554688 138.925781 122.792969 137.207031 125.484375 137.132812 C 128.171875 137.054688 130.488281 138.699219 131.457031 141.167969 L 174.773438 256.867188 L 197.554688 169.421875 C 198.226562 166.878906 200.390625 165.085938 202.933594 164.859375 C 205.472656 164.636719 207.9375 165.980469 209.054688 168.375 L 227.203125 206.566406 L 247.144531 126.519531 C 247.816406 123.902344 250.132812 121.957031 252.820312 121.882812 C 255.511719 121.734375 258.050781 123.453125 258.945312 125.996094 L 273.585938 167.625 L 330.273438 167.777344 C 333.707031 167.777344 336.394531 170.09375 336.394531 173.457031 C 336.394531 176.894531 333.632812 179.136719 330.195312 179.136719 L 269.105469 179.433594 C 266.488281 179.433594 264.175781 178.015625 263.277344 175.546875 L 254.015625 149.3125 L 234.824219 226.148438 C 234.226562 228.691406 232.058594 230.558594 229.445312 230.859375 C 226.832031 231.082031 224.367188 229.738281 223.246094 227.34375 L 204.949219 188.929688 L 181.496094 278.917969 C 180.824219 281.535156 178.507812 283.402344 175.820312 283.550781 C 175.96875 283.550781 175.894531 283.550781 175.746094 283.550781 Z M 175.746094 283.550781 " fill-opacity="1" fill-rule="nonzero"/><path fill="#ffffff" d="M 69.320312 212.472656 C 69.320312 213.351562 69.234375 214.21875 69.0625 215.082031 C 68.890625 215.945312 68.636719 216.78125 68.300781 217.589844 C 67.964844 218.402344 67.554688 219.175781 67.066406 219.90625 C 66.578125 220.636719 66.023438 221.3125 65.402344 221.933594 C 64.78125 222.554688 64.105469 223.109375 63.378906 223.597656 C 62.648438 224.082031 61.875 224.496094 61.066406 224.832031 C 60.253906 225.167969 59.417969 225.421875 58.558594 225.59375 C 57.695312 225.765625 56.828125 225.851562 55.949219 225.851562 C 55.070312 225.851562 54.203125 225.765625 53.339844 225.59375 C 52.480469 225.421875 51.644531 225.167969 50.832031 224.832031 C 50.023438 224.496094 49.253906 224.082031 48.523438 223.597656 C 47.792969 223.109375 47.117188 222.554688 46.496094 221.933594 C 45.875 221.3125 45.320312 220.636719 44.832031 219.90625 C 44.347656 219.175781 43.933594 218.402344 43.597656 217.589844 C 43.261719 216.78125 43.007812 215.945312 42.835938 215.082031 C 42.667969 214.21875 42.582031 213.351562 42.582031 212.472656 C 42.582031 211.59375 42.667969 210.722656 42.835938 209.863281 C 43.007812 209 43.261719 208.164062 43.597656 207.351562 C 43.933594 206.539062 44.347656 205.769531 44.832031 205.039062 C 45.320312 204.308594 45.875 203.632812 46.496094 203.011719 C 47.117188 202.390625 47.792969 201.835938 48.523438 201.347656 C 49.253906 200.859375 50.023438 200.449219 50.832031 200.109375 C 51.644531 199.773438 52.480469 199.519531 53.339844 199.351562 C 54.203125 199.179688 55.070312 199.09375 55.949219 199.09375 C 56.828125 199.09375 57.695312 199.179688 58.558594 199.351562 C 59.417969 199.519531 60.253906 199.773438 61.066406 200.109375 C 61.875 200.449219 62.648438 200.859375 63.378906 201.347656 C 64.105469 201.835938 64.78125 202.390625 65.402344 203.011719 C 66.023438 203.632812 66.578125 204.308594 67.066406 205.039062 C 67.554688 205.769531 67.964844 206.539062 68.300781 207.351562 C 68.636719 208.164062 68.890625 209 69.0625 209.863281 C 69.234375 210.722656 69.320312 211.59375 69.320312 212.472656 Z M 69.320312 212.472656 " fill-opacity="1" fill-rule="nonzero"/><path fill="#ffffff" d="M 349.464844 173.679688 C 349.464844 174.558594 349.378906 175.429688 349.210938 176.289062 C 349.039062 177.152344 348.785156 177.988281 348.449219 178.800781 C 348.113281 179.613281 347.699219 180.382812 347.214844 181.113281 C 346.726562 181.84375 346.171875 182.519531 345.550781 183.140625 C 344.929688 183.761719 344.253906 184.316406 343.523438 184.804688 C 342.792969 185.292969 342.023438 185.703125 341.214844 186.039062 C 340.402344 186.378906 339.566406 186.628906 338.707031 186.800781 C 337.84375 186.972656 336.976562 187.058594 336.097656 187.058594 C 335.21875 187.058594 334.351562 186.972656 333.488281 186.800781 C 332.628906 186.628906 331.792969 186.378906 330.980469 186.039062 C 330.171875 185.703125 329.398438 185.292969 328.667969 184.804688 C 327.941406 184.316406 327.265625 183.761719 326.644531 183.140625 C 326.023438 182.519531 325.46875 181.84375 324.980469 181.113281 C 324.492188 180.382812 324.082031 179.613281 323.746094 178.800781 C 323.410156 177.988281 323.15625 177.152344 322.984375 176.289062 C 322.8125 175.429688 322.726562 174.558594 322.726562 173.679688 C 322.726562 172.800781 322.8125 171.933594 322.984375 171.070312 C 323.15625 170.207031 323.410156 169.371094 323.746094 168.558594 C 324.082031 167.75 324.492188 166.976562 324.980469 166.246094 C 325.46875 165.515625 326.023438 164.839844 326.644531 164.21875 C 327.265625 163.597656 327.941406 163.042969 328.667969 162.554688 C 329.398438 162.066406 330.171875 161.65625 330.980469 161.320312 C 331.792969 160.984375 332.628906 160.730469 333.488281 160.558594 C 334.351562 160.386719 335.21875 160.300781 336.097656 160.300781 C 336.976562 160.300781 337.84375 160.386719 338.707031 160.558594 C 339.566406 160.730469 340.402344 160.984375 341.214844 161.320312 C 342.023438 161.65625 342.792969 162.066406 343.523438 162.554688 C 344.253906 163.042969 344.929688 163.597656 345.550781 164.21875 C 346.171875 164.839844 346.726562 165.515625 347.210938 166.246094 C 347.699219 166.976562 348.113281 167.75 348.449219 168.558594 C 348.785156 169.371094 349.039062 170.207031 349.210938 171.070312 C 349.378906 171.933594 349.464844 172.800781 349.464844 173.679688 Z M 349.464844 173.679688 " fill-opacity="1" fill-rule="nonzero"/></svg>